<?xml version="1.0" encoding="utf-8"?>
<!-- Generator: Adobe Illustrator 19.1.0, SVG Export Plug-In . SVG Version: 6.00 Build 0)  -->
<svg version="1.1" id="Calque_1" xmlns="http://www.w3.org/2000/svg" xmlns:xlink="http://www.w3.org/1999/xlink" x="0px" y="0px"
	 viewBox="-429.1 439.7 60.1 96.6" style="enable-background:new -429.1 439.7 60.1 96.6;" xml:space="preserve">
<path d="M-384,536.3c-1.7-2.2-3.3-4.3-5-6.6c-1.7,2.2-3.4,4.3-5.2,6.6c0-6.2,0-12.1,0-18.1c-1.2,0.3-2.4,0.5-3.7,0.8
	c0.3-1.2,0.5-2.4,0.8-3.4c0.2-0.7,0-0.9-0.7-1.1c-1.1-0.3-2.1-0.6-3.4-1c1-1.1,2-2.2,3-3.2c-1-1.1-1.9-2.1-3-3.2
	c1.3-0.4,2.4-0.8,3.5-1.1c0.6-0.2,0.7-0.4,0.6-1c-0.3-1.1-0.5-2.2-0.8-3.5c1.2,0.3,2.3,0.4,3.4,0.8c0.8,0.3,1.1,0,1.2-0.7
	c0.3-1,0.6-2.1,1-3.3c1.1,1,2.1,2,3.2,3c1.1-1,2.1-1.9,3.2-3c0.4,1.3,0.8,2.4,1.1,3.5c0.2,0.6,0.4,0.7,1,0.6
	c1.1-0.3,2.2-0.5,3.5-0.8c-0.3,1.5-0.6,2.8-1,4.3c1.4,0.4,2.7,0.8,4.2,1.3c-1,1.1-2,2.1-3,3.2c1,1.1,2,2.1,3,3.2
	c-1.5,0.5-2.8,0.9-4.2,1.3c0.3,1.4,0.6,2.7,1,4.3c-1.2-0.3-2.3-0.5-3.5-0.7c0,6.1,0,12.1,0,18.1C-383.8,536.3-383.9,536.3-384,536.3
	z"/>
<path d="M-379.7,488.1c0,0.6,0,1.2,0,1.8c-12.8,0-25.5,0-38.3,0c0-0.6,0-1.2,0-1.8C-405.2,488.1-392.5,488.1-379.7,488.1z"/>
<path d="M-381.2,474.4c0,0.6,0,1.2,0,1.8c-11.8,0-23.5,0-35.3,0c0-0.6,0-1.2,0-1.8C-404.8,474.4-393.1,474.4-381.2,474.4z"/>
<path d="M-386.2,459.8c0,0.7,0,1.2,0,1.9c-8.4,0-16.8,0-25.3,0c0-0.6,0-1.2,0-1.9C-403,459.8-394.7,459.8-386.2,459.8z"/>
<path d="M-386.2,481.1c0,0.7,0,1.3,0,1.9c-8.4,0-16.8,0-25.3,0c0-0.6,0-1.2,0-1.9C-403,481.1-394.7,481.1-386.2,481.1z"/>
<path d="M-380.6,439.7h-2.6h-45.9v84.9h32.7v-2.2h-30.5v-80.5h44.2v11.5h11.6v69h-10.5v2.2h12.6V454v-2.6L-380.6,439.7z
	 M-380.6,451.4v-8.8l8.9,8.8H-380.6z"/>
</svg>
