<?xml version="1.0" encoding="utf-8"?>
<!-- Generator: Adobe Illustrator 19.1.0, SVG Export Plug-In . SVG Version: 6.00 Build 0)  -->
<svg version="1.1" id="Calque_1" xmlns="http://www.w3.org/2000/svg" xmlns:xlink="http://www.w3.org/1999/xlink" x="0px" y="0px"
	 viewBox="-448.4 449.9 99.4 78.6" style="enable-background:new -448.4 449.9 99.4 78.6;" xml:space="preserve">
<style type="text/css">
	.st0{display:none;}
	.st1{display:inline;}
	.st2{enable-background:new    ;}
	.st3{display:inline;fill:none;stroke:#FFFFFF;stroke-miterlimit:10;}
	.st4{display:inline;fill:none;}
	.st5{display:inline;stroke:#FFFFFF;stroke-miterlimit:10;}
</style>
<g class="st0">
	<rect x="-641" y="438" class="st1" width="185" height="99"/>
	<rect x="-449" y="402" class="st1" width="100" height="30"/>
	<text transform="matrix(1 0 0 1 -383 418.5)" class="st1" style="font-family:'Helvetica'; font-size:2.4px;">http://thenounproject.com</text>
	<text transform="matrix(1 0 0 1 -441.834 413.5)" class="st1" style="font-family:'Helvetica-Bold'; font-size:6.1578px;">The Noun Project</text>
	<text transform="matrix(1 0 0 1 -440.714 418.3)" class="st1" style="font-family:'Helvetica-Bold'; font-size:4px;">Icon Template</text>
	<text transform="matrix(1 0 0 1 -627.5 448.5)" class="st1" style="font-family:'Helvetica-Bold'; font-size:6.1578px;">Reminders</text>
	<line class="st3" x1="-441" y1="423.5" x2="-431" y2="423.5"/>
	<line class="st3" x1="-628" y1="454.5" x2="-611" y2="454.5"/>
	<g class="st1">
		<g>
			<g>
				<rect x="-619.8" y="469.3" width="8.7" height="8.6"/>
				<path d="M-613.5,480.3h4.7v-4.7h-4.7V480.3z M-608.3,480.7h-5.6v-5.6h5.6V480.7L-608.3,480.7z M-615.2,482.1h8.3v-8.2h-8.3
					V482.1L-615.2,482.1z M-606.5,482.5h-9.2v-9.1h9.2V482.5L-606.5,482.5z"/>
				<polygon points="-615.1,482.1 -615.3,482 -607,473.8 -606.9,473.9 				"/>
			</g>
		</g>
	</g>
	<rect x="-628" y="496" class="st4" width="35" height="32.5"/>
	<text transform="matrix(1 0 0 1 -628 498.1572)" class="st1" style="font-family:'Helvetica-Bold'; font-size:3px;">Strokes</text>
	<text transform="matrix(1 0 0 1 -628 503.1572)" class="st1" style="font-family:'Helvetica'; font-size:2.4px;">Try to keep strokes at 4px</text>
	<text transform="matrix(1 0 0 1 -628 508.1572)" class="st1" style="font-family:'Helvetica'; font-size:2.4px;">Minimum stroke weight is 2px</text>
	<text transform="matrix(1 0 0 1 -628 512.6572)" class="st1" style="font-family:'Helvetica'; font-size:2.4px;">For thicker strokes use even </text>
	<text transform="matrix(1 0 0 1 -628 515.6572)" class="st1" style="font-family:'Helvetica'; font-size:2.4px;">numbers: 6px, 8px etc.</text>
	<text transform="matrix(1 0 0 1 -628 520.1572)" class="st1" style="font-family:'Helvetica-Bold'; font-size:2.4px;">Remember to expand strokes </text>
	<text transform="matrix(1 0 0 1 -628 523.1572)" class="st1" style="font-family:'Helvetica-Bold'; font-size:2.4px;">before saving as an SVG </text>
	<rect x="-585.5" y="496" class="st4" width="35" height="32.5"/>
	<text transform="matrix(1 0 0 1 -585.5 498.1572)" class="st1" style="font-family:'Helvetica-Bold'; font-size:3px;">Size</text>
	<text transform="matrix(1 0 0 1 -585.5 503.1572)" class="st1" style="font-family:'Helvetica'; font-size:2.4px;">Cannot be wider or taller than </text>
	<text transform="matrix(1 0 0 1 -585.5 506.6572)" class="st1" style="font-family:'Helvetica'; font-size:2.4px;">100px (artboard size)</text>
	<text transform="matrix(1 0 0 1 -585.5 511.6572)" class="st1" style="font-family:'Helvetica'; font-size:2.4px;">Scale your icon to fill as much of </text>
	<text transform="matrix(1 0 0 1 -585.5 514.6572)" class="st1" style="font-family:'Helvetica'; font-size:2.4px;">the artboard as possible</text>
	<rect x="-543" y="496" class="st4" width="35" height="32.5"/>
	<text transform="matrix(1 0 0 1 -543 498.1572)" class="st1" style="font-family:'Helvetica-Bold'; font-size:3px;">Ungroup</text>
	<text transform="matrix(1 0 0 1 -543 503.1572)" class="st1" style="font-family:'Helvetica'; font-size:2.4px;">If your design has more than one </text>
	<text transform="matrix(1 0 0 1 -543 506.1572)" class="st1" style="font-family:'Helvetica'; font-size:2.4px;">shape, make sure to ungroup</text>
	<rect x="-499" y="496" class="st4" width="35" height="32.5"/>
	<text transform="matrix(1 0 0 1 -499 498.1572)" class="st1" style="font-family:'Helvetica-Bold'; font-size:3px;">Save as</text>
	<text transform="matrix(1 0 0 1 -499 503.1572)" class="st1" style="font-family:'Helvetica'; font-size:2.4px;">Save as .SVG and make sure </text>
	<text transform="matrix(1 0 0 1 -499 506.1572)" class="st1" style="font-family:'Helvetica'; font-size:2.4px;">“Use Artboards” is checked</text>
	<text transform="matrix(1.0074 0 0 1 -574.542 468.5933)" class="st1" style="font-family:'Helvetica'; font-size:2.5731px;">100px</text>
	<text transform="matrix(1.0074 0 0 1 -490 477)" class="st1" style="font-family:'Helvetica-Bold'; font-size:5.1462px;">.SVG</text>
	<rect x="-575.5" y="472.8" class="st1" width="10.3" height="10.2"/>
	<rect x="-575.5" y="469.8" class="st1" width="0.5" height="2.3"/>
	<rect x="-565.8" y="469.8" class="st1" width="0.5" height="2.3"/>
	<rect x="-576" y="470.3" class="st1" width="11.2" height="0.6"/>
	<g class="st1">
		<rect x="-532.8" y="471.8" width="10.3" height="10.2"/>
		<rect x="-525.8" y="466.7" width="3.3" height="3.3"/>
	</g>
	<rect x="-627.5" y="460.5" class="st5" width="30" height="30"/>
	<rect x="-585.5" y="460.5" class="st5" width="30" height="30"/>
	<rect x="-542.5" y="460.5" class="st5" width="30" height="30"/>
	<rect x="-498.5" y="460.5" class="st5" width="30" height="30"/>
</g>
<g>
	<path d="M-398.9,495.8l-28.1-11.4c-1.2,2.5-2,5.4-2.3,9.3c16.6,0.5,31.6,18.1,31.6,18.1s16.1-17.7,32.5-18
		c-0.4-4.5-1.5-7.8-2.9-10.5L-398.9,495.8z"/>
	<path d="M-349,473.5V470l-6.8-2.8l-1.8-3c-1.2-1.7-5.7-2.6-8.1-1l-33-13.3l-49.7,20.1v3.4l25.5,10.3l24.2,9.8l26.5-10.7l11.7-4.7
		V514c-1.3,0.7-2.3,2.1-2.3,3.7v10.8h8.5v-10.8c0-1.5-0.8-2.9-2.1-3.6l0.1-37.7L-349,473.5z"/>
</g>
</svg>
